<svg width="600" height="400" viewBox="0 0 600 400" fill="none" xmlns="http://www.w3.org/2000/svg">
  <!-- Base Device -->
  <g transform="translate(100, 50)">
    <!-- Bottom Layer (Device Base) -->
    <rect x="50" y="220" width="300" height="30" rx="5" fill="#2C3E50" />
    
    <!-- Middle Layer (Circuit Board) -->
    <rect x="80" y="180" width="240" height="40" rx="2" fill="#34495E" />
    <rect x="100" y="190" width="20" height="20" rx="2" fill="#7F8C8D" />
    <rect x="140" y="190" width="20" height="20" rx="2" fill="#7F8C8D" />
    <rect x="180" y="190" width="20" height="20" rx="2" fill="#7F8C8D" />
    <rect x="220" y="190" width="20" height="20" rx="2" fill="#7F8C8D" />
    <rect x="260" y="190" width="20" height="20" rx="2" fill="#7F8C8D" />
    
    <!-- Top Layer (Screen) -->
    <rect x="25" y="30" width="350" height="150" rx="8" fill="#E74C3C" />
    
    <!-- Screen Highlights -->
    <rect x="45" y="50" width="80" height="10" rx="2" fill="#FFFFFF" opacity="0.2" />
    <rect x="45" y="70" width="120" height="10" rx="2" fill="#FFFFFF" opacity="0.2" />
    <rect x="45" y="90" width="60" height="10" rx="2" fill="#FFFFFF" opacity="0.2" />
    <rect x="45" y="110" width="100" height="10" rx="2" fill="#FFFFFF" opacity="0.2" />
    <rect x="45" y="130" width="80" height="10" rx="2" fill="#FFFFFF" opacity="0.2" />
    
    <!-- Screen Reflections -->
    <rect x="45" y="40" width="310" height="130" rx="4" fill="#FFFFFF" opacity="0.05" />
    <path d="M325 30 L345 50 L345 60 L315 30 Z" fill="#FFFFFF" opacity="0.2" />
    <path d="M315 180 L345 150 L345 140 L305 180 Z" fill="#FFFFFF" opacity="0.1" />
    
    <!-- Side Stripes -->
    <rect x="300" y="50" width="10" height="110" rx="2" fill="#FFFFFF" opacity="0.3" />
    <rect x="315" y="50" width="5" height="110" rx="2" fill="#FFFFFF" opacity="0.2" />
    <rect x="325" y="50" width="5" height="110" rx="2" fill="#FFFFFF" opacity="0.1" />
  </g>
</svg> 